<svg height="512pt" viewBox="-100 0 512 512.00002" width="512pt" xmlns="http://www.w3.org/2000/svg"><path d="m86.78125 295.050781h138.847656c47.925782 0 86.777344 38.851563 86.777344 86.78125v130.167969h-312.40625v-130.167969c0-47.929687 38.851562-86.78125 86.78125-86.78125zm0 0" fill="#e6e6e6"/><g fill="#005a95"><path d="m156.203125 399.1875-34.710937 60.746094-26.035157-34.714844zm0 0"/><path d="m156.203125 399.1875 34.710937 60.746094 26.035157-34.714844zm0 0"/><path d="m156.203125 399.1875 138.761719-69.382812c-15.992188-21.402344-40.976563-34.214844-67.6875-34.710938zm0 0"/><path d="m156.203125 399.1875-138.761719-69.382812c15.992188-21.402344 40.976563-34.214844 67.691406-34.710938zm0 0"/></g><path d="m156.203125 399.1875 71.089844-104.050781c-.554688 0-1.101563-.085938-1.664063-.085938h-138.847656c-.566406 0-1.113281.070313-1.667969.085938zm0 0" fill="#f2c09a"/><path d="m86.78125 295.050781c-.566406 0-1.113281.070313-1.667969.085938l33.972657 49.734375c6.804687 1.492187 13.75 2.246094 20.714843 2.246094h32.804688c6.964843 0 13.910156-.753907 20.714843-2.246094l33.972657-49.734375c-.554688 0-1.101563-.085938-1.667969-.085938zm0 0" fill="#cc9c72"/><path d="m269.015625 121.492188v103.179687c0 23.015625-8.234375 45.269531-23.210937 62.742187-18.316407 21.371094-45.054688 33.671876-73.199219 33.671876h-32.804688c-28.144531 0-54.882812-12.300782-73.199219-33.671876-14.976562-17.472656-23.210937-39.726562-23.210937-62.742187v-103.179687zm0 0" fill="#f2c09a"/><path d="m92.636719 287.414062c-14.980469-17.472656-23.214844-39.726562-23.214844-62.742187v-103.179687h-26.03125v103.179687c.003906 53.246094 43.167969 96.40625 96.410156 96.414063h26.035157c-28.144532 0-54.886719-12.300782-73.199219-33.671876zm0 0" fill="#e8b894"/><path d="m156.203125 225.628906h-8.675781c-4.792969 0-8.679688-3.886718-8.679688-8.679687s3.886719-8.679688 8.679688-8.679688h8.675781v-34.710937c0-9.585938 7.769531-17.355469 17.355469-17.355469h43.390625c4.792969 0 8.679687 3.886719 8.679687 8.679687 0 4.789063-3.886718 8.675782-8.679687 8.675782h-43.390625v34.710937c0 9.585938-7.769532 17.359375-17.355469 17.359375zm0 0" fill="#a67c52"/><path d="m130.167969 173.558594h-34.710938c-4.792969 0-8.675781-3.882813-8.675781-8.675782 0-4.792968 3.882812-8.679687 8.675781-8.679687h34.710938c4.792969 0 8.679687 3.886719 8.679687 8.679687 0 4.792969-3.886718 8.675782-8.679687 8.675782zm0 0" fill="#a67c52"/><path d="m269.015625 156.203125h8.679687c14.378907 0 26.035157 11.65625 26.035157 26.035156 0 14.375-11.65625 26.03125-26.035157 26.03125h-8.679687zm0 0" fill="#cc9c72"/><path d="m43.390625 208.269531h-8.679687c-14.375 0-26.03125-11.65625-26.03125-26.03125 0-14.378906 11.65625-26.035156 26.03125-26.035156h8.679687zm0 0" fill="#cc9c72"/><path d="m121.492188 190.914062c0 4.792969-3.886719 8.679688-8.679688 8.679688s-8.675781-3.886719-8.675781-8.679688c0-4.792968 3.882812-8.675781 8.675781-8.675781s8.679688 3.882813 8.679688 8.675781zm0 0" fill="#a67c52"/><path d="m208.269531 190.914062c0 4.792969-3.882812 8.679688-8.675781 8.679688s-8.679688-3.886719-8.679688-8.679688c0-4.792968 3.886719-8.675781 8.679688-8.675781s8.675781 3.882813 8.675781 8.675781zm0 0" fill="#a67c52"/><path d="m164.882812 295.050781h-17.355468c-4.792969 0-8.679688-3.886719-8.679688-8.679687 0-4.789063 3.886719-8.675782 8.679688-8.675782h17.355468c4.792969 0 8.675782 3.886719 8.675782 8.675782 0 4.792968-3.882813 8.679687-8.675782 8.679687zm0 0" fill="#a67c52"/><path d="m269.015625 130.167969h-225.625l-26.035156-78.101563h277.695312zm0 0" fill="#e6e6e6"/><path d="m95.457031 0h121.492188c28.757812 0 52.066406 23.3125 52.066406 52.066406h-225.625c0-28.753906 23.3125-52.066406 52.066406-52.066406zm0 0" fill="#e6e6e6"/><path d="m295.050781 52.066406h-277.695312l14.464843 43.390625h248.765626zm0 0" fill="#005a95"/><path d="m121.492188 0h-26.035157c-28.753906 0-52.066406 23.3125-52.066406 52.066406h26.03125c0-28.753906 23.3125-52.066406 52.070313-52.066406zm0 0" fill="#ccc"/><path d="m17.355469 52.066406 26.035156 78.101563h26.03125l-26.03125-78.101563zm0 0" fill="#ccc"/><path d="m17.355469 52.066406 14.464843 43.390625h26.035157l-14.464844-43.390625zm0 0" fill="#004d80"/><path d="m260.339844 442.578125h52.066406v69.421875h-52.066406zm0 0" fill="#f2c09a"/><path d="m0 442.578125h52.066406v69.421875h-52.066406zm0 0" fill="#f2c09a"/><path d="m43.390625 390.507812h17.355469v121.492188h-17.355469zm0 0" fill="#ccc"/><path d="m251.660156 390.507812h17.355469v121.492188h-17.355469zm0 0" fill="#ccc"/></svg>